<svg width="48" height="49" viewBox="0 0 48 49" fill="none" xmlns="http://www.w3.org/2000/svg">
<path fill-rule="evenodd" clip-rule="evenodd" d="M13.5 26C12.6716 26 12 25.3284 12 24.5C12 23.6716 12.6716 23 13.5 23H34.5C35.3284 23 36 23.6716 36 24.5C36 25.3284 35.3284 26 34.5 26H13.5Z" fill="white"/>
<path fill-rule="evenodd" clip-rule="evenodd" d="M12.4393 25.5607C11.8536 24.9749 11.8536 24.0251 12.4393 23.4393C13.0251 22.8536 13.9749 22.8536 14.5607 23.4393L22.0607 30.9393C22.6464 31.5251 22.6464 32.4749 22.0607 33.0607C21.4749 33.6464 20.5251 33.6464 19.9393 33.0607L12.4393 25.5607Z" fill="white"/>
<path fill-rule="evenodd" clip-rule="evenodd" d="M14.5607 25.5607C13.9749 26.1464 13.0251 26.1464 12.4393 25.5607C11.8536 24.9749 11.8536 24.0251 12.4393 23.4393L19.9393 15.9393C20.5251 15.3536 21.4749 15.3536 22.0607 15.9393C22.6464 16.5251 22.6464 17.4749 22.0607 18.0607L14.5607 25.5607Z" fill="white"/>
</svg>
