<svg width="48" height="48" viewBox="0 0 48 48" fill="none" xmlns="http://www.w3.org/2000/svg">
<path fill-rule="evenodd" clip-rule="evenodd" d="M13.9392 13.947C13.3535 14.5329 13.3536 15.4826 13.9395 16.0683L21.8782 24.0038L13.9395 31.9392C13.3536 32.5249 13.3535 33.4746 13.9392 34.0605C14.5248 34.6464 15.4746 34.6466 16.0605 34.0609L24 26.1246L31.9395 34.0609C32.5254 34.6466 33.4752 34.6464 34.0608 34.0605C34.6465 33.4746 34.6464 32.5249 34.0605 31.9392L26.1218 24.0038L34.0605 16.0683C34.6464 15.4826 34.6465 14.5329 34.0608 13.947C33.4752 13.3611 32.5254 13.3609 31.9395 13.9466L24 21.8829L16.0605 13.9466C15.4746 13.3609 14.5248 13.3611 13.9392 13.947Z" fill="#D1D1D1"/>
</svg>
