<svg width="174" height="55" viewBox="0 0 174 55" fill="none" xmlns="http://www.w3.org/2000/svg">
<path d="M27.1632 54.2604C41.925 54.2604 53.8918 42.2936 53.8918 27.5318C53.8918 12.77 41.925 0.803223 27.1632 0.803223C12.4014 0.803223 0.434601 12.77 0.434601 27.5318C0.434601 42.2936 12.4014 54.2604 27.1632 54.2604Z" fill="white"/>
<path d="M17.3822 42.4809H36.9441V37.1847H23.4473V30.0092H33.4702V24.9692H23.4473H17.3822V42.4809Z" fill="black"/>
<path d="M36.8587 12.5825H17.3822V17.8787H23.4473H36.8587V12.5825Z" fill="black"/>
<path d="M65.554 14.0652H73.9009V12.1176H67.7798V8.48201H73.0106V6.62713H67.7798V3.02867H73.8824V1.08105H65.554V14.0652Z" fill="white"/>
<path d="M76.4949 14.0652H78.7207V5.21742L84.2853 14.0652H86.3257V1.08105H84.0999V9.92881L78.5352 1.08105H76.4949V14.0652Z" fill="white"/>
<path d="M92.1308 14.0652H94.3566V3.02867H98.122V1.08105H88.3654V3.02867H92.1308V14.0652Z" fill="white"/>
<path d="M100.17 14.0652H108.517V12.1176H102.396V8.48201H107.627V6.62713H102.396V3.02867H108.498V1.08105H100.17V14.0652Z" fill="white"/>
<path d="M111.111 14.0652H113.337V9.07557H115.896L118.567 14.0652H120.756V13.3233L118.326 8.81588C119.866 8.16668 120.608 6.75697 120.608 5.06903C120.608 2.5835 119.254 1.08105 116.694 1.08105H111.111V14.0652ZM113.337 7.18359V3.02867H116.286C117.584 3.02867 118.345 3.65933 118.345 5.10613C118.345 6.55293 117.584 7.18359 116.286 7.18359H113.337Z" fill="white"/>
<path d="M123.356 14.0652H125.582V9.05702H128.976C131.276 9.05702 132.63 7.49892 132.63 5.06903C132.63 2.63914 131.276 1.08105 128.976 1.08105H123.356V14.0652ZM125.582 7.1094V3.02867H128.587C129.551 3.02867 130.367 3.69642 130.367 5.06903C130.367 6.44164 129.551 7.1094 128.587 7.1094H125.582Z" fill="white"/>
<path d="M135.13 14.0652H137.356V9.07557H139.916L142.587 14.0652H144.775V13.3233L142.345 8.81588C143.885 8.16668 144.627 6.75697 144.627 5.06903C144.627 2.5835 143.273 1.08105 140.713 1.08105H135.13V14.0652ZM137.356 7.18359V3.02867H140.305C141.604 3.02867 142.364 3.65933 142.364 5.10613C142.364 6.55293 141.604 7.18359 140.305 7.18359H137.356Z" fill="white"/>
<path d="M147.375 14.0652H149.601V1.08105H147.375V14.0652Z" fill="white"/>
<path d="M157.147 14.3439C160.411 14.3439 162.062 12.693 162.062 10.5043C162.062 8.22273 160.059 7.40659 157.759 6.59044L157.499 6.4977C155.607 5.82994 154.698 5.51461 154.698 4.42024C154.698 3.51135 155.626 2.84359 157.11 2.84359C158.464 2.84359 159.725 3.43715 159.725 5.18073H161.951C161.951 2.04599 159.873 0.803223 157.128 0.803223C154.216 0.803223 152.454 2.32422 152.454 4.58717C152.454 6.70173 153.956 7.46223 156.405 8.38967L156.701 8.50097C158.686 9.24292 159.706 9.59534 159.706 10.6156C159.706 11.5801 158.872 12.3035 157.276 12.3035C155.997 12.3035 154.327 11.7841 154.327 9.85503H152.101C152.101 12.8971 154.439 14.3439 157.147 14.3439Z" fill="white"/>
<path d="M164.837 14.0652H173.184V12.1176H167.063V8.48201H172.294V6.62713H167.063V3.02867H173.165V1.08105H164.837V14.0652Z" fill="white"/>
<path d="M64.2185 34.469H66.0715L67.1232 31.5809H71.5304L72.5654 34.469H74.5353V33.8012L70.3618 22.7832H68.3919L64.2185 33.8012V34.469ZM67.7242 29.9115L69.3435 25.4543L70.9294 29.9115H67.7242Z" fill="white"/>
<path d="M76.375 34.469H83.9707V32.7161H78.3783V22.7832H76.375V34.469Z" fill="white"/>
<path d="M89.756 34.7193C90.9913 34.7193 91.9929 34.2685 92.7275 33.3671L93.3284 34.4689H94.4136V28.2921H90.1065V29.9615H92.4103V31.464C91.9095 32.3654 90.9579 32.883 89.8728 32.883C88.3036 32.883 87.4021 32.0149 87.4021 30.5625V26.6061C87.4021 25.2205 88.3871 24.3691 89.9396 24.3691C91.4921 24.3691 92.4103 25.2205 92.4103 26.5059V26.5727H94.4136V26.5059C94.4136 23.7681 92.2934 22.5327 90.0231 22.5327C87.1183 22.5327 85.3989 24.0853 85.3989 26.7396V30.5625C85.3989 33.2001 87.0682 34.7193 89.756 34.7193Z" fill="white"/>
<path d="M101.516 32.883C99.7795 32.883 98.9281 31.8646 98.9281 30.6126V26.6394C98.9281 25.3874 99.7795 24.3691 101.516 24.3691C103.252 24.3691 104.103 25.3874 104.103 26.6394V30.6126C104.103 31.8646 103.252 32.883 101.516 32.883ZM101.516 34.7193C104.32 34.7193 106.106 33.1668 106.106 30.5124V26.7396C106.106 24.0853 104.32 22.5327 101.516 22.5327C98.7111 22.5327 96.9248 24.0853 96.9248 26.7396V30.5124C96.9248 33.1668 98.7111 34.7193 101.516 34.7193Z" fill="white"/>
<path d="M108.785 34.469H110.788V29.9783H113.092L115.496 34.469H117.465V33.8012L115.279 29.7446C116.664 29.1603 117.332 27.8916 117.332 26.3724C117.332 24.1355 116.113 22.7832 113.81 22.7832H108.785V34.469ZM110.788 28.2755V24.5361H113.442C114.611 24.5361 115.295 25.1037 115.295 26.4058C115.295 27.7079 114.611 28.2755 113.442 28.2755H110.788Z" fill="white"/>
<path d="M119.805 34.469H121.808V22.7832H119.805V34.469Z" fill="white"/>
<path d="M127.03 34.469H129.034V24.5361H132.423V22.7832H123.642V24.5361H127.03V34.469Z" fill="white"/>
<path d="M134.266 34.469H136.269V29.4942H141.11V34.469H143.113V22.7832H141.11V27.7413H136.269V22.7832H134.266V34.469Z" fill="white"/>
<path d="M152.027 30.6962L154.698 26.339V34.469H156.635V22.7832H154.765L151.41 28.2422L148.054 22.7832H146.118V34.469H148.054V26.339L150.742 30.6962H152.027Z" fill="white"/>
<path d="M159.633 34.469H161.636V22.7832H159.633V34.469Z" fill="white"/>
<path d="M168.844 34.7193C171.131 34.7193 173.151 33.5006 173.151 30.6794V30.5124H171.148V30.6794C171.148 32.2486 169.846 32.883 168.828 32.883C167.108 32.883 166.307 32.0316 166.307 30.646V26.6061C166.307 25.2205 167.108 24.3691 168.828 24.3691C169.846 24.3691 171.148 25.0034 171.148 26.5727V26.7396H173.151V26.5727C173.151 23.7514 171.131 22.5327 168.844 22.5327C165.94 22.5327 164.304 24.0853 164.304 26.7396V30.5124C164.304 33.1668 165.94 34.7193 168.844 34.7193Z" fill="white"/>
<path d="M68.8826 54.1819C71.6575 54.1819 73.0607 52.7787 73.0607 50.9182C73.0607 48.979 71.3579 48.2852 69.4029 47.5915L69.1821 47.5127C67.5739 46.9451 66.8014 46.677 66.8014 45.7468C66.8014 44.9743 67.5897 44.4067 68.851 44.4067C70.002 44.4067 71.0741 44.9112 71.0741 46.3933H72.9661C72.9661 43.7287 71.2002 42.6724 68.8668 42.6724C66.3915 42.6724 64.8937 43.9652 64.8937 45.8887C64.8937 47.6861 66.1707 48.3325 68.2519 49.1208L68.5042 49.2154C70.1912 49.8461 71.0583 50.1457 71.0583 51.0128C71.0583 51.8327 70.3488 52.4476 68.9929 52.4476C67.905 52.4476 66.4861 52.0061 66.4861 50.3664H64.5941C64.5941 52.9521 66.5807 54.1819 68.8826 54.1819Z" fill="white"/>
<path d="M77.5163 53.9452H79.4083V44.5641H82.6089V42.9087H74.3157V44.5641H77.5163V53.9452Z" fill="white"/>
<path d="M82.4607 53.9452H84.2108L85.204 51.2176H89.3664L90.3439 53.9452H92.2044V53.3145L88.2627 42.9087H86.4023L82.4607 53.3145V53.9452ZM85.7716 49.6409L87.301 45.4313L88.7988 49.6409H85.7716Z" fill="white"/>
<path d="M93.9419 53.9452H99.0187C100.974 53.9452 102.172 52.9204 102.172 50.8865C102.172 49.2783 101.384 48.5688 100.422 48.222C101.257 47.7963 101.746 47.1025 101.746 45.8728C101.746 43.8862 100.532 42.9087 98.593 42.9087H93.9419V53.9452ZM95.8338 52.2897V49.2152H98.7033C99.7597 49.2152 100.28 49.7671 100.28 50.7761C100.28 51.7694 99.7439 52.2897 98.7033 52.2897H95.8338ZM95.8338 47.6386V44.5641H98.2776C99.3182 44.5641 99.8385 45.1002 99.8385 46.0935C99.8385 47.0868 99.3182 47.6386 98.2776 47.6386H95.8338Z" fill="white"/>
<path d="M104.381 53.9452H111.555V52.2897H106.273V42.9087H104.381V53.9452Z" fill="white"/>
<path d="M113.296 53.9452H120.391V52.2897H115.188V49.1995H119.634V47.6228H115.188V44.5641H120.375V42.9087H113.296V53.9452Z" fill="white"/>
<path d="M128.003 53.9452H129.895V44.5641H133.095V42.9087H124.802V44.5641H128.003V53.9452Z" fill="white"/>
<path d="M138.857 52.4476C137.217 52.4476 136.413 51.4858 136.413 50.3033V46.5509C136.413 45.3684 137.217 44.4067 138.857 44.4067C140.496 44.4067 141.3 45.3684 141.3 46.5509V50.3033C141.3 51.4858 140.496 52.4476 138.857 52.4476ZM138.857 54.1819C141.505 54.1819 143.192 52.7156 143.192 50.2087V46.6455C143.192 44.1386 141.505 42.6724 138.857 42.6724C136.208 42.6724 134.521 44.1386 134.521 46.6455V50.2087C134.521 52.7156 136.208 54.1819 138.857 54.1819Z" fill="white"/>
<path d="M145.722 53.9452H147.614V49.2468H149.017L152.013 53.9452H153.873V53.3145L150.672 48.3166L153.652 43.5393V42.9087H151.902L149.017 47.5913H147.614V42.9087H145.722V53.9452Z" fill="white"/>
<path d="M155.607 53.9452H162.701V52.2897H157.499V49.1995H161.945V47.6228H157.499V44.5641H162.686V42.9087H155.607V53.9452Z" fill="white"/>
<path d="M164.906 53.9452H166.798V46.4246L171.528 53.9452H173.263V42.9087H171.371V50.4293L166.641 42.9087H164.906V53.9452Z" fill="white"/>
</svg>
