<svg width="32" height="32" viewBox="0 0 32 32" fill="none" xmlns="http://www.w3.org/2000/svg">
<path fill-rule="evenodd" clip-rule="evenodd" d="M9.29277 9.2979C8.90231 9.68849 8.90242 10.3217 9.29302 10.7121L14.5855 16.0024L9.29302 21.2927C8.90242 21.6832 8.90231 22.3163 9.29277 22.7069C9.68322 23.0975 10.3164 23.0976 10.707 22.7072L16 17.4163L21.293 22.7072C21.6836 23.0976 22.3168 23.0975 22.7072 22.7069C23.0977 22.3163 23.0976 21.6832 22.707 21.2927L17.4145 16.0024L22.707 10.7121C23.0976 10.3217 23.0977 9.68849 22.7072 9.2979C22.3168 8.90731 21.6836 8.9072 21.293 9.29765L16 14.5885L10.707 9.29765C10.3164 8.9072 9.68322 8.90731 9.29277 9.2979Z" fill="#0A0606"/>
</svg>
