<svg width="80" height="80" viewBox="0 0 80 80" fill="none" xmlns="http://www.w3.org/2000/svg">
<path fill-rule="evenodd" clip-rule="evenodd" d="M0 40C0 62.0914 17.9086 80 40 80C62.0914 80 80 62.0914 80 40C80 17.9086 62.0914 0 40 0C17.9086 0 0 17.9086 0 40ZM75 40C75 59.33 59.33 75 40 75C20.67 75 5 59.33 5 40C5 20.67 20.67 5 40 5C59.33 5 75 20.67 75 40ZM37.5 22.5C37.5 21.1193 38.6193 20 40 20C41.3807 20 42.5 21.1193 42.5 22.5V50C42.5 51.3807 41.3807 52.5 40 52.5C38.6193 52.5 37.5 51.3807 37.5 50V22.5ZM42.5 60C42.5 61.3807 41.3807 62.5 40 62.5C38.6193 62.5 37.5 61.3807 37.5 60C37.5 58.6193 38.6193 57.5 40 57.5C41.3807 57.5 42.5 58.6193 42.5 60Z" fill="#F8B700"/>
</svg>
